<svg id="Layer_1" data-name="Layer 1" xmlns="http://www.w3.org/2000/svg" viewBox="0 0 1129.56 1308.12"><defs><style>.cls-1{fill:#fff;stroke:#000;stroke-width:0.5px;}.cls-2,.cls-3,.cls-4,.cls-5{isolation:isolate;}.cls-3{font-size:115.39px;letter-spacing:-0.06em;}.cls-3,.cls-4,.cls-5{font-family:ArialMT, Arial;}.cls-4{font-size:90.16px;letter-spacing:-0.06em;}.cls-5{font-size:64.72px;letter-spacing:-0.06em;}.cls-6{fill:#7d7d7d;}.cls-7{fill:#a5a5a4;}</style></defs><g id="Layer_1-2" data-name="Layer_1"><path class="cls-1" d="M307.82,804.33a85.89,85.89,0,0,1-4.15,11.87c.19.5.39,1,.58,1.49,1.13-.52,2.26-1,3.42-1.51,2.64-1.09,5,.73,5.87,3.09a66.32,66.32,0,0,0,2.64-7.6,3.61,3.61,0,0,1,.17-.46,4.51,4.51,0,0,1-1.67-1.69,60.46,60.46,0,0,0-5.87-8.57h-1.34A4.68,4.68,0,0,1,307.82,804.33Z" transform="translate(-68.75 -366.61)"/><path class="cls-1" d="M329.32,820h.73c0-.11.08-.22.13-.33,2-4.71,8.7-4.66,9.68.33h.64c.51-4.33,1-8.66,1.5-13,.58-5.16,7-6.27,9.24-2.8a5.36,5.36,0,0,1,.8,0c0-.19.09-.38.14-.57a4.68,4.68,0,0,1,1.7-2.72h-19c-3.38,2.94-6.8,5.81-10.39,8.36a4.47,4.47,0,0,1,.83,1.17C326.82,813.58,328.12,816.78,329.32,820Z" transform="translate(-68.75 -366.61)"/><path class="cls-1" d="M367.41,813.23a5.53,5.53,0,0,1,.41,3.1c-.33,2.34-.67,4.67-1,7a57,57,0,0,1,7.18,2V813.83a4.3,4.3,0,0,1-3.82-3.5c-.06-.35-.14-.7-.21-1.05A4.65,4.65,0,0,1,367.41,813.23Z" transform="translate(-68.75 -366.61)"/><path class="cls-1" d="M838.22,801H408c-.62,2.46-1.36,4.91-2.18,7.38-1.27,3.81-7.09,5.27-9.14,1.19l-.85-1.73a4.71,4.71,0,0,1-1,.06c-2.15,5.35-4.87,10.44-7.52,15.67A4.17,4.17,0,0,1,384,826v11a4.55,4.55,0,0,1-2.61,4.3c-1.71,7.72-4.06,15.25-8.07,22.22a4.83,4.83,0,0,1-7.15,1.43,4.8,4.8,0,0,1-.89.49,91.17,91.17,0,0,1-1.46,12.89c-.84,4.49-5.38,4.36-8,2h0a5,5,0,0,1-6.6,3.26,5.33,5.33,0,0,1-7.16-4q-1.85.21-3.69.36c-.19.79-.38,1.58-.55,2.38a4.45,4.45,0,0,1-5.18,3.53A58.64,58.64,0,0,0,332,893c-.13,5.54-7.28,6.29-9.4,2.32a5.11,5.11,0,0,1-1.92-1.8c-.8-1.24-1.53-2.5-2.22-3.78-.23.85-.45,1.71-.64,2.59-1.25,5.79-9.52,4-9.82-1.33-.21-3.77-1.52-7.32-2.59-10.94l-2.21,0a11,11,0,0,1-1.37.25.09.09,0,0,1,0,.05c-1.26,5.47-10.18,4.29-9.82-1.33a23.45,23.45,0,0,1,.65-3.88,4.77,4.77,0,0,1,.81-5.42l.06-.52c0-.19-.07-.36-.09-.55a3.69,3.69,0,0,1,.17-1.47l-.28.36,0,0c-3.06,6.13-6.36,12.14-10,18-2.09,3.37-8.38,3.28-9.14-1.19a106.44,106.44,0,0,1-1.29-22.45c-3.49,1.29-8.15-2.87-6.21-7.4l.36-.84a4.49,4.49,0,0,1-1-.41q-1.89,1.18-3.79,2.33v793.89A24.82,24.82,0,0,0,287,1674.22h551.2A24.84,24.84,0,0,0,863,1649.45V825.72A24.84,24.84,0,0,0,838.22,801Z" transform="translate(-68.75 -366.61)"/><path class="cls-1" d="M272.18,837.18l-.3.35,3.06-2.09-.57-.3Q273.32,836.19,272.18,837.18Z" transform="translate(-68.75 -366.61)"/><path class="cls-1" d="M285.57,856.4l-2.43-.26c-.33,3.44-.51,6.89-.52,10.33.54-1.05,1.09-2.1,1.62-3.16C284.61,861,285.07,858.7,285.57,856.4Z" transform="translate(-68.75 -366.61)"/></g><g id="layer1-7"><path id="sl" d="M365.88,978c-1.31-20.18-42.14-58.16-43.46-67.66-1.32,9.5-42.14,47.48-43.46,67.66-.92,14.27,9.22,20.18,18.44,20.18,10-.1,18.23-13.93,21.07-16.61,1.32,3.56-8.72,33.23-11.85,33.23h31.61c-3.13,0-13.17-29.67-11.85-33.23,2.48,2.46,9.77,16.2,21.07,16.61C356.67,998.17,366.8,992.26,365.88,978Z" transform="translate(-68.75 -366.61)"/></g><g id="text3788-2" class="cls-2"><text class="cls-3" transform="translate(772.87 1209.1) rotate(180)">A</text></g><g id="layer1-7-8"><path id="sl-0" d="M759.63,1498.77c1.32,20.18,42.15,58.16,43.47,67.67,1.31-9.5,42.14-47.48,43.46-67.67.92-14.26-9.22-20.17-18.45-20.17-10,.1-18.22,13.93-21.07,16.61-1.31-3.56,8.73-33.23,11.86-33.23H787.29c3.13,0,13.17,29.67,11.85,33.23-2.49-2.47-9.78-16.2-21.07-16.61C768.85,1478.6,758.71,1484.51,759.63,1498.77Z" transform="translate(-68.75 -366.61)"/></g><path id="path2987" d="M548.06,1461.84c-28.22,0-51.55-.26-51.84-.55s2-2.46,5.1-4.85c11.29-8.69,21-23.18,32.24-48,7.71-17.07,10.19-23.92,12.76-35.2,4.1-18.07,4-30.43-.39-35.64l-2.08-2.5-8.4,8.83a109.07,109.07,0,0,1-35.06,24.1c-14.86,6.5-24.47,8.57-40.78,8.82-12.87.19-15.64-.15-24.84-3-23.21-7.23-42-23.78-53-46.62-6.6-13.76-8.28-21.39-8.6-38.9-.26-14.17.05-16.92,3.27-29.27,5-19.28,15.34-43.13,25.83-59.78,12.76-20.24,42.17-57.8,73.26-93.55,25.57-29.41,35.88-42.52,53.72-68.32,19-27.45,26.52-40.6,30.11-52.58,1.44-4.79,2.88-8.71,3.2-8.71s2.17,4.76,4.13,10.57c7.77,23.13,27.89,54.8,57,89.81,5.19,6.24,20.31,24,33.59,39.46,43.51,50.65,61.88,76.16,78.11,108.44,12.57,25,17.52,44.27,16.93,65.81-.76,27.53-9.57,47-30,66.19-8.42,7.92-21.33,15.41-31.59,18.34-3.17.91-11.76,2.08-19.09,2.59-21.93,1.55-38.28-2.74-61.07-16-10.68-6.23-22.76-16.31-26.1-21.77-2.69-4.42-4.76-4.14-6.79.92-3.4,8.5-4,16.16-1.87,26.38,6.46,31.85,27.12,72.65,44.86,88.6l7.17,6.44H613.63c-7.85,0-37.35,0-65.57,0ZM594.9,1445c-5.56-4.45-17.61-21.61-23.58-33.58-6.2-12.45-8.1-21.6-6.34-30.6.72-3.69,1.57-8.08,1.9-9.74.38-1.94-.44-5-2.27-8.45l-2.86-5.42-3.2,6.1-3.2,6.09,2.12,5.62c3.11,8.28,2.37,20.31-1.83,29.38-5.3,11.45-23.06,37.83-27.64,41-5.35,3.75-3,3.63,7.23-.38,7.36-2.89,9.71-3.23,22.69-3.36,14.92-.14,28.53,1.8,34.47,4.9C597.92,1449.48,599.36,1448.56,594.9,1445Zm-21.39-7.45c-6.9-1.51-24.27-1.07-30.7.77-2.86.81-2.85.78.63-3.16,4.78-5.41,7.81-11.15,13.48-25.57,4.35-11.08,4.92-12,5.94-9.36.62,1.59,3.1,8.24,5.51,14.79,4.2,11.46,6.82,16.25,11.89,21.75,2.66,2.89,2.81,2.87-6.75.78Zm114.69-78.39c16.14-6.16,31.11-20.55,39-37.48,5-10.65,6.72-17.08,8.21-30,2.11-18.12-.95-34.37-10.8-57.44-13-30.49-31.32-55.56-69.57-95.31-58.14-60.42-72.55-79.22-86.23-112.54-2.34-5.7-4.64-12.57-5.12-15.28s-1.2-4.89-1.63-4.87-2.09,4.41-3.72,9.75c-9.79,32.12-31.86,63.07-83.2,116.68-35.79,37.38-41.36,44-56,66.71-19.17,29.65-28,53.51-29,78.32-1.56,39.11,18.93,72.54,50.12,81.76,19.08,5.64,45.26,1.07,65.89-11.51,16.57-10.11,25-18.44,31.39-31,2-4,3.92-7.58,4.15-7.86s2.31,1.26,4.62,3.41c4.05,3.77,11.14,15.82,14.08,23.91l1.41,3.9,3.8-9.1a56.28,56.28,0,0,1,10-16l6.2-6.9,4.13,8.24c9.45,18.81,35.81,37.41,62.65,44.21,11.48,2.9,29.78,2.17,39.66-1.6Zm-30.7-.9c-9.77-1.16-15.9-3-26.1-8-26.8-13-40.94-27.41-43.68-44.59-.49-3-1.42-5.48-2.09-5.47-3.93.06-16.56,14.68-20.91,24.22-1,2.16-2.25,3.94-2.8,4s-2.16-2.19-3.57-4.88c-4.09-7.78-11.7-17.78-15.91-20.89s-4.23-3.15-6.25,3.55a71.14,71.14,0,0,1-10.88,21.29c-4.39,5.58-23,18.83-32.53,23.18-21.44,9.77-46.69,9.87-63.67.25-14.54-8.23-25.42-23.5-30.84-43.24-7.65-27.91-3.39-54.18,13.88-85.63,15.92-29,25.74-42,55-73,48.57-51.45,73-83.13,87.15-113q8.8-18.63,3.85,1.88c-5.67,23.34-43.78,79.88-102,151.3-15.69,19.25-32.58,47.55-37.77,63.25-7.11,21.57-8.14,38.94-3.35,56.69,6.8,25.25,20.87,39.82,41.45,43,29.84,4.54,56.54-17.09,74.22-60.12l4.27-10.39,5.85,8.76c6.35,9.51,19.25,23.06,21.93,23,2,0,17.15-16.26,22.12-23.77,2-3,3.95-5.55,4.3-5.57s1.36,1.9,2.25,4.28,3.69,8.4,6.23,13.39c18,35.31,41.89,52.63,69.51,50.41,12.28-1,21.16-6.21,29.74-17.5,9.3-12.22,13.7-23.66,15.2-39.5,1.66-17.59-2.78-37-13.67-59.79-6.11-12.78-24.18-38.82-38.53-55.52-28-32.65-74.46-97.64-87.21-122.13-3.31-6.34-7.57-20.26-8.62-28.11q-1.26-9.51,3.85,3.85c5.53,14.5,19.21,36.19,34.35,54.48,9.48,11.46,19.95,23,46.23,51,16.93,18,27.66,30.44,39.81,46,20.78,26.65,37.86,62,42,86.79,4,24.22-5.67,54.54-22.53,70.55-6.58,6.25-19.64,13-29.32,15.24-8.24,1.88-11.15,2-21,.82Zm-10.24-13a61.84,61.84,0,0,1-24.56-15.88C611.1,1317,599,1296,593.51,1278.78c-2.89-9-3.9-10.34-5-6.54-2.35,7.83-22.9,37.55-26,37.59-2.18,0-11.69-12.3-20.75-26.89-4.69-7.55-8.68-13.89-8.87-14.07s-1.39,3.89-2.69,9c-5.92,23.52-23.6,51.76-39,62.33-21.76,14.92-54,8.35-63.83-13-2.62-5.69-4.86-17.63-3.31-17.65a1.09,1.09,0,0,1,1,1.17c0,2.58,6.64,10.67,11.14,13.65,17.65,11.71,34.67,9.8,54.29-6.08,15.35-12.42,29.56-40.43,24.12-47.54-1.41-1.84-1.54-1.55-1.09,2.5.67,6-2,10-9,13.72-3,1.59-6,3.82-6.62,5-1,1.89-1.39,1.8-4.49-1.08-1.86-1.72-4.61-3.12-6.1-3.09-2.68,0-2.69.08-.53,2.4,2.63,2.82,3.08,12,.92,18.76-1.75,5.43-10.62,15-16.71,18-10.22,5.06-26.47,1.7-34.74-7.19-11.85-12.73-7.2-34.09,9.37-43,7.95-4.29,19.25-2.67,25.22,3.62,2.81,3,2.83,3.1,1,7.12-2.58,5.63-4.4,6-8.78,1.75-3.42-3.33-4.21-3.57-9.52-3-10,1.11-16.25,10.26-13.46,19.82,1.6,5.48,10,13,15.58,13.94,14.7,2.53,28.44-13.69,24.72-29.19-1.16-4.82-1-6.49,1.66-14.37,5.77-17.29,2.55-44-6.65-55.12-1.82-2.2-1.85-2.17-.72.87,1.23,3.28.65,6.66-1.14,6.69a1.13,1.13,0,0,1-1.05-1.2c0-.67-2.19-2.15-4.85-3.29-6-2.6-10.7-1.23-13.26,3.91-1.68,3.36-1.66,3.5.36,2.63,4.8-2,6.49-2.08,10.84-.19,8.44,3.65,13.52,13.92,13.67,27.6.1,8.29-1.71,18-3.35,18a27.51,27.51,0,0,1-5-3.37c-5.83-4.47-9.5-5.69-16.72-5.55-12.05.23-23.78,9.16-30.18,23-2.06,4.47-3.75,9.45-3.75,11.06,0,2.79-.06,2.82-1.39.64-1.94-3.18-1.81-21.28.22-31.3,5.11-25.19,25.22-61.71,48.2-87.55l6.19-7,.83,10.91c.66,8.55,1.5,12.15,3.92,16.7,3.75,7.06,11.93,14.61,17.86,16.47,6.47,2,16.73.81,21.08-2.51,4.53-3.46,7.74-10.58,6.64-14.73-.59-2.18-.41-2.94.61-2.62,2.46.78,5.83,6,7,10.87s.09,15.94-2,20-8.84,8.47-15.78,10.33c-10.58,2.83-12.74,4.06-14.68,8.29-2.26,5-1.16,11.61,2.2,13.35,2.26,1.16,2.28,1.11.42-1.46-2.46-3.41-2.43-4,.33-6.82,2-2,3.85-2.38,13.58-2.55,14.28-.24,19.59-2.43,23.69-9.78,4.5-8,5.52-13.85,3.89-22.12-2.57-13.06-9.45-23.85-17.82-27.93-7-3.41-12.57-3.48-16.59-.22-3.64,3-4,5.25-.54,3.32s7.72.23,9.86,5.15c1.51,3.47,1.54,4.57.2,7.92-4.43,11.06-17.4,12.11-28.85,2.33-7.32-6.25-10.56-13.06-10.65-22.34-.11-12.93,6.38-23.63,17.76-29.24,4.52-2.23,14.57-2.5,20.32-.54,16,5.46,30.7,25.79,36.08,50,2,9,7,47.62,7.14,54.72a18.71,18.71,0,0,1-2.19,8.77c-2.86,4.86-2.81,8,.15,9.8a5.36,5.36,0,0,1,2.38,4c0,1.55.75,2.61,1.78,2.59s1.72-1.09,1.7-2.64a5.35,5.35,0,0,1,2.25-4.1c2.79-1.8,2.88-5,.28-9.85-1.59-3-1.85-5.68-1.38-14.7.76-14.44,4.11-37.88,7-48.62,6-22.73,18.87-42,32.16-48.29,10.84-5.11,25.32-1.7,33.85,8,5.43,6.15,6.91,10.87,6.55,20.94-.25,7.09-.91,9.42-4.24,15.16-5.33,9.16-12.91,14-21.16,13.37-4.79-.33-6.37-1.08-9.63-4.53-3.08-3.26-3.91-5.12-4-8.83-.09-6.21,4.14-10.94,9.19-10.28,4.18.55,4.36-.79.44-3.28-4.68-3-13.09-1.49-19.82,3.48-6,4.42-12.19,13.85-14.14,21.48-1.71,6.73-.35,19.06,2.79,25.33,4.34,8.61,7.93,10.34,22.51,10.8,10.94.35,12.76.71,15.09,3s2.47,2.89,1.18,5-1.22,2.36,0,1.92c2.22-.77,3.64-5.92,2.66-9.62-1.48-5.51-6.46-9.21-14.36-10.64-3.93-.71-8.53-2.35-10.22-3.64-9.07-6.91-11.54-25.84-4.57-35,3.18-4.16,4.47-3.9,3.78.77-.73,5,2,10.07,7.5,14.16,3.32,2.46,5.79,3.21,11.35,3.46,9,.4,14.19-1.8,21.05-8.87,7.4-7.62,9.87-14.13,9.79-25.82,0-5.25.32-9.56.78-9.57,1.43,0,17.38,20.53,27.54,35.51,21.56,31.77,30.76,57.19,29.13,80.51-.72,10.49-2.34,13.09-3.56,5.73-1.59-9.65-11.93-23.71-21.36-29-4.09-2.32-6.78-2.92-13-2.9-8.43,0-13.41,1.92-18.91,7.22l-3,2.92-1.6-2.7c-1-1.72-1.63-6.47-1.7-13.13-.13-12.15,2.32-19.31,9.07-26.45,5.36-5.66,9.83-6.76,14.33-3.54l3.38,2.43-.05-3.33c-.11-7.44-10.36-10.19-17.55-4.71l-3.65,2.79.47-3.52c.59-4.55-1.4-3.82-5.25,1.93-4.48,6.68-6.38,13.82-6.87,25.8-.37,9.11,0,12.51,2.2,19.67,1.45,4.76,2.64,10.09,2.65,11.84s0,6.19-.13,9.85c-.22,11,4.67,19.35,13.78,23.39,13.41,6,27.2-2.45,27-16.44-.1-6.57-2.72-10.73-8.61-13.66-4.35-2.17-11.65-1.36-14.88,1.65-2.17,2-2.37,2-5.91-1.47s-3.65-3.61-1.71-6.67c4.09-6.44,18.56-10,25.85-6.26a38.71,38.71,0,0,1,7.5,6c11.57,11.65,12.47,27.43,2.23,39.41-8.24,9.65-16.78,11.83-29.84,7.65-9.43-3-15.28-7.66-19-15-5.18-10.39-5.21-14.12-.16-24.29,1.24-2.49-5.05-.3-8.08,2.81-2.67,2.76-3.74,3.26-4.49,2.1a6.52,6.52,0,0,1-1-2.34c0-.45-2.6-2.46-5.75-4.45-8.06-5.1-11.36-12.39-8.45-18.64,1.14-2.46,1.12-2.47-.59-.27-3.89,5-2.44,13.15,4.71,26.58,12.23,23,31.29,37,51.37,37.9,8.13.35,9.77,0,15.42-2.82,6.5-3.3,12.94-9.93,16.65-17.13l2.11-4.09.1,4.06c.21,8.71-9.37,24.66-18.44,30.67-5.3,3.52-6.61,3.85-16.83,4.3-9.34.42-12.2.09-18.27-2.12Zm12.29-30.73c-3.32-.59-8.5-5.65-10.55-10.3-1.62-3.68-2.39-13-1.08-13,2.51,0,7.43,4.37,9.38,8.39,2,4.21,2.75,4.75,6.23,4.7,4.72-.07,7.17-3,5.09-6.16a4.77,4.77,0,0,0-3.79-1.88c-2.71.14-3.25-1.71-1.12-3.9,1.47-1.51,6.47-1.94,9.55-.81,2.54.93,5.36,6.43,5.43,10.57s-3.39,8.9-8,11.37c-3.21,1.72-6,2-11.15,1.07ZM450,1311.35c-5.43-4.86-6.57-10.29-3.31-15.69,2.61-4.31,7-5.94,11.13-4.14,3.46,1.51,3.94,4.81.58,4-1.66-.41-2.65.27-3.62,2.47-1.12,2.56-1,3.4.81,5.33a7.49,7.49,0,0,0,4.77,2.25c3,0,7.36-5.08,7.31-8.38,0-1.18.68-2.17,1.56-2.18a4.84,4.84,0,0,0,3-1.78c2.35-2.93,3.44-2,3.51,2.88.16,10.57-5.58,17.53-15.23,18.48-5.81.57-6.54.34-10.53-3.23Zm110.44-85.22a19.4,19.4,0,0,0-1.81-7.79c-2.39-4-2.23-5.93.88-10.27l2.71-3.8,2.7,4.23c2.43,3.81,2.56,4.59,1.23,7.86a37.56,37.56,0,0,0-1.91,9.14C563.69,1232.8,560.63,1233.31,560.46,1226.13Zm-6.09-28.58c-2.5-11.8-10.08-24.74-20.36-34.76-10.85-10.59-19.73-15.18-26.91-13.92-3.83.67-4.52.48-4.52-1.25,0-3.22,2.61-7.23,6.27-9.73,6.64-4.52,11.55-2.74,22.14,8,15.46,15.71,26.55,37.15,26.77,51.72.12,8-1.69,7.92-3.39-.08Zm11.52.69c-.18-14.06,9.63-35.11,23.32-50.06,13.5-14.75,22.57-17.06,30.18-7.69a11.44,11.44,0,0,1,2.5,5.54c0,2.26-.57,2.49-6.63,2.55-9.31.08-16.26,3.91-26.83,14.76-10.21,10.49-17.23,22.76-19.22,33.6-.74,4-1.77,7.36-2.29,7.37S565.94,1201.58,565.89,1198.24ZM561,1179.6c-.16-10.15-2.36-21.79-9.56-50.39-6.94-27.6-6-42.54,3.72-60.91a74.84,74.84,0,0,0,5.26-12.45l1.33-5,1.5,4.61a143.55,143.55,0,0,0,5.75,13.39c9.09,18.79,10.31,31.71,5,53.12-4.61,18.67-8.37,37.38-10.15,50.57C562.13,1185.16,561.09,1187.74,561,1179.6Zm-13.66-22.71c-1.8-2.64-6.33-8.43-10.07-12.89-8.32-9.91-11.73-16.28-12.73-23.7-1.31-9.86,2.84-16,9.84-14.6,6.76,1.38,9.93,9.69,13.29,34.89,1.38,10.37,2.83,19.36,3.22,20s.48,1.11.21,1.11S549.11,1159.52,547.31,1156.89Zm26.65,1.53c.25-1.91.95-8.7,1.57-15.09,2-20.59,5.71-31.94,12-36.58,4.23-3.11,6.12-3.14,8.93-.11,1.75,1.87,2.26,4.12,2.32,10.11.09,9.78-1.6,13.38-12.8,27.22-4.86,6-9.66,12.51-10.66,14.43l-1.84,3.51Zm-53.71-27.7c-3.31-2.08-5.56-2.1-10.5-.12-1.76.7-1.69.21.5-3.77a67,67,0,0,1,6.42-9.18l3.9-4.59.08,5.26a36,36,0,0,0,1.84,10A28.39,28.39,0,0,1,524,1133c-.13,0-1.82-1.08-3.75-2.29Zm81.06-3c.44-2.49,1.1-7.11,1.46-10.26l.64-5.72,3.08,4.51c1.69,2.48,4,6.19,5.08,8.24l2,3.74-3.83.06a13.47,13.47,0,0,0-6.53,2l-2.71,2Zm-62.24-28.55a9.8,9.8,0,0,0-5-2.2c-1.2,0-2.19-.2-2.2-.47,0-.88,9-14.53,10-15.19.56-.35.66,1.39.24,3.92a46.48,46.48,0,0,0-.12,10.41c.36,3.21.46,5.82.21,5.8A18.57,18.57,0,0,1,539.07,1099.22Zm43-7.65a87.08,87.08,0,0,1,.29-9.18c.47,0,9.81,13.63,9.82,14.34,0,.39-.53.39-1.2,0s-3,.35-5.08,1.65l-3.88,2.37Z" transform="translate(-68.75 -366.61)"/><g id="Layer_1-3" data-name="Layer_1"><path class="cls-1" d="M612,1015.22a5.77,5.77,0,0,1-1.52-2.93A163,163,0,0,1,583,1008.2q10.34,5.56,20.51,11.37a5.23,5.23,0,0,1,2.57,3.08l.44.26q10.32,4,20.51,8.37C622,1026,617,1020.58,612,1015.22Z" transform="translate(-68.75 -366.61)"/><path class="cls-1" d="M1044.57,650.4l-328.08-279a19.39,19.39,0,0,0-27.26,2.22L272.33,864a19.23,19.23,0,0,0-4.47,10.39c18.65,8.11,36.27,18.37,53.34,29.53a195.14,195.14,0,0,1,35.47,6.47c17.06,5,32.48,14.07,47.15,23.94,2.75.93,5.5,1.86,8.24,2.81,13.95,4.86,28,10,41.86,15.51A742.9,742.9,0,0,1,524.45,976a522.94,522.94,0,0,1,93,25.55,5.92,5.92,0,0,1,3.84,5.07c29.45,5.56,56.92,19.85,82.59,34.77,4,2.36,3.37,9-1.33,10.17a117.64,117.64,0,0,1-26.69,3.21c4.57,2.07,9.11,4.27,13.63,6.52,1.44.47,2.88.93,4.33,1.36a5.13,5.13,0,0,1,3,2.31c4.87,2.44,9.73,4.87,14.61,7.16l335.38-394.43A19.4,19.4,0,0,0,1044.57,650.4Z" transform="translate(-68.75 -366.61)"/><path class="cls-1" d="M386.63,941.2c1.34.13,2.69.27,4,.43-2.52-.8-5-1.57-7.57-2.35C384.26,939.92,385.44,940.57,386.63,941.2Z" transform="translate(-68.75 -366.61)"/><path class="cls-1" d="M632.26,1020.66c6.88,7.34,13.86,14.58,21.15,21.5a130.06,130.06,0,0,0,31.21,1.13C667.92,1034.13,650.53,1025.87,632.26,1020.66Z" transform="translate(-68.75 -366.61)"/></g><g id="text3788" class="cls-2"><text class="cls-4" transform="matrix(0.76, 0.65, -0.65, 0.76, 595.22, 62.84)">A</text></g><g id="layer1-7-2" data-name="layer1-7"><path id="sl-2" data-name="sl" d="M673.83,516.73c9.43-12.68,4.35-56,8.38-62.27-5.59,5-49.12,6.93-60.12,18.28-7.76,8-4.72,16.67.77,21.34,6,5,17.9.94,20.95.77-1,2.79-22,15.37-23.88,13.79l18.82,16c-1.87-1.59,7.18-24.33,9.76-25.79.23,2.73-2.38,14.6,4.14,20.56C658.14,524.07,667.16,525.68,673.83,516.73Z" transform="translate(-68.75 -366.61)"/></g><g id="text3788-2-2" data-name="text3788-2" class="cls-2"><text class="cls-5" transform="matrix(-0.76, -0.65, 0.65, -0.76, 618.08, 662.08)">A</text></g><path id="path2987-2" data-name="path2987" d="M537.39,896.91c-16.79-14.29-30.55-26.24-30.58-26.55s2.44-.46,5.49-.31c11.12.54,24.24-3.16,43.48-12.26,13.23-6.25,18.17-9.07,25.41-14.49,11.58-8.68,17.76-16.1,17.81-21.41l0-2.54-9.47,1a84.83,84.83,0,0,1-33.06-3.4c-12.13-3.65-18.9-7.27-28.74-15.39-7.75-6.39-9.23-8-13.26-14.35-10.16-16.06-13-35.43-7.94-54.57,3-11.53,5.89-16.92,14.56-27.51,7-8.57,8.6-10,16.77-15.77a183.22,183.22,0,0,1,45.63-22.51c17.83-5.58,54.35-13.06,90.94-18.6,30.11-4.57,42.88-7.15,66.56-13.48,25.19-6.72,36.33-10.74,44.53-16,3.28-2.12,6.12-3.73,6.31-3.57s-1.11,3.93-2.89,8.38c-7.08,17.71-11.13,46.73-11.5,82.33-.06,6.34-.05,24.56,0,40.49.26,52.17-1.71,76.65-8.39,104.08-5.17,21.24-12,35.21-23.23,47.73-14.38,16-29.47,23.12-51.36,24.21-9,.46-20.5-1.62-28.09-5.07a98.9,98.9,0,0,1-12.67-8.12c-13.84-10.17-21.4-21-28.23-40.46-3.2-9.12-5.29-21.23-4.51-26.17.63-4-.74-4.87-4.51-2.88C610.17,843,606,847.29,602,854.42c-12.27,22.23-20.62,57-18.13,75.44l1,7.46-8.49-7.21c-4.68-4-22.23-18.9-39-33.2Zm36.4,13.69c-1.06-5.47.46-21.78,3-31.92,2.61-10.56,6.11-17,11.71-21.43l6.06-4.84c1.21-1,2.26-3.18,2.92-6.17l1-4.67-5,2-5,2L586.93,850c-2.33,6.51-8.87,13.3-15.95,16.57-9,4.13-32.88,10.84-37.22,10.44-5.09-.48-3.62.65,4.49,3.43,5.84,2,7.41,3,15.2,9.49,8.95,7.47,16.08,15.51,18,20.36C573.32,914.8,574.64,915,573.79,910.6Zm-9-15.27c-3.34-4.38-13.9-12.91-18.66-15.08-2.11-1-2.09-1,2-1.56,5.59-.8,10.3-2.68,21-8.39,8.2-4.39,9-4.64,8.27-2.56-.43,1.25-2.32,6.47-4.2,11.58-3.3,8.95-4.17,13.13-3.93,19,.12,3.06.22,3.13-4.42-3Zm107.94,11.39c12.73,4.51,28.92,3.52,42.17-2.57,8.34-3.84,12.64-6.77,20.07-13.71,10.42-9.72,16.83-20.94,22.64-39.65,7.69-24.74,9.48-48.93,6.83-91.94-4-65.39-3.08-83.87,5.63-110.63a80.93,80.93,0,0,1,4.69-11.68c1.09-1.85,1.76-3.52,1.5-3.72s-3.49,1.56-7.16,3.91c-22.08,14.16-50.88,21.42-108.57,27.34-40.22,4.13-46.89,5.26-67.11,11.35-26.41,8-43.75,17.68-56.89,31.94-20.73,22.49-25.45,52.76-11.55,74,8.5,13,26.4,23.54,45,26.49,15,2.38,24.23,1.68,34.39-2.57,3.26-1.37,6.16-2.53,6.44-2.58s.74,1.92,1,4.37c.5,4.29-1.38,15-3.72,21.35l-1.13,3,6.86-3.49a44.08,44.08,0,0,1,14-4.46l7.18-1-1.71,7c-3.89,16,2.38,40.38,14.92,58,5.36,7.54,16.63,16.36,24.41,19.12ZM655,890.65c-5.23-5.63-7.94-9.85-11.51-17.95-9.38-21.3-10.49-37-3.43-48.65,1.24-2,1.93-4,1.53-4.32-2.37-2-17.29.36-24.71,3.84-1.68.78-3.33,1.2-3.66.93s-.18-2.39.34-4.71c1.51-6.7,2-16.51,1.11-20.49s-.93-4-5.52-1a56,56,0,0,1-17.25,7.16c-5.44,1.1-23.21-.42-31.09-2.67-17.71-5-32.8-17.75-38-32.07-4.48-12.26-3.24-26.85,3.53-41.35,9.57-20.48,25.4-34,51.6-43.94,24.13-9.18,36.58-12,69.72-15.61,54.95-6,85.52-12.54,109.07-23.16q14.67-6.63,1.34,3.07c-15.19,11-66.48,25.38-137.27,38.44-19.08,3.52-43.46,11.81-54.49,18.54-15.15,9.23-24.55,19.05-30.69,32-8.72,18.47-7.73,34.26,2.94,46.54,15.47,17.81,42.3,18.45,74.6,1.78l7.8-4-.95,8.17c-1,8.88-.21,23.47,1.4,24.8,1.24,1,18.44-1,25.2-3,2.74-.79,5.16-1.31,5.38-1.14s-.16,1.82-.83,3.69S649,822.45,648,826.7c-7.15,30.13-1.71,52.53,15.85,65.18,7.81,5.63,15.74,7,26.56,4.64,11.73-2.57,20.13-7.15,29-15.82,9.89-9.63,17.07-23.43,22.12-42.51,2.83-10.69,5.26-35.34,5.17-52.54-.17-33.63,5.1-95.8,9.9-116.83,1.24-5.45,5.75-15.89,9.1-21.09,2.71-4.21,2.82-2.78.34,4.23-4.05,11.44-6.88,31.27-7.13,49.82-.15,11.62.23,23.79,1.71,53.75.95,19.31,1.06,32.12.4,47.54-1.12,26.38-8.83,56-18.94,72.89-9.88,16.45-31,29.59-49.12,30.59-7.08.39-18.29-2.18-25.17-5.77-5.85-3-7.64-4.45-12.9-10.13Zm.47-12.92a48.34,48.34,0,0,1-6.58-21.88c-.61-13.27,2.8-31.84,8.24-44.89,2.85-6.83,2.91-8.13.3-6.44-5.36,3.46-32.63,10.76-34.48,9.22-1.31-1.08-.74-13.23,1.26-26.5,1-6.87,1.86-12.66,1.84-12.86s-2.8,1.6-6.18,4c-15.43,11-40.24,18.87-54.76,17.36-20.5-2.14-36.37-22.36-31.41-40,1.32-4.71,6-13,7-12.18a.85.85,0,0,1,0,1.19c-1.28,1.56-1.44,9.71-.27,13.77,4.57,15.9,15.67,23.37,35.39,23.85,15.42.38,38-9.1,38.41-16.09.09-1.81-.12-1.7-1.91.94-2.65,3.92-6.24,5-12.28,3.63-2.61-.59-5.51-.77-6.44-.4-1.57.6-1.74.36-2.13-2.92-.23-2-1.16-4.18-2.07-4.93-1.61-1.33-1.63-1.31-1.52,1.17.14,3-4.26,8.71-9,11.63-3.78,2.35-13.9,3.55-19.06,2.26-8.64-2.15-16.61-12.38-17-21.85-.61-13.58,13-23.94,27.36-20.88,6.91,1.47,12.81,8.15,13.19,14.92.17,3.17.11,3.27-3,4.73-4.38,2.05-5.65,1.34-6.11-3.4-.35-3.71-.7-4.26-4.15-6.59-6.55-4.42-14.88-2.12-18,5-1.82,4.07-.63,12.78,2.22,16.19,7.47,8.94,23.85,6.24,29.48-4.87,1.76-3.46,2.71-4.35,8.27-7.71,12.18-7.37,23.78-24.9,23.93-36.18,0-2.23,0-2.22-.86.16-.93,2.57-3,4.29-4.07,3.4a.9.9,0,0,1,0-1.25c.33-.4-.21-2.38-1.22-4.4-2.28-4.61-5.75-6.15-9.87-4.39-2.7,1.15-2.76,1.24-1.12,1.75,3.9,1.21,4.92,2,6.56,5.37,3.17,6.45,1,15.13-5.84,23.35-4.14,5-10.13,9.84-11.12,9a22.37,22.37,0,0,1-1.27-4.54c-1.21-5.61-2.77-8.2-7.14-11.77-7.29-6-18.8-6.58-29.6-1.59-3.49,1.62-7,3.73-7.83,4.69-1.41,1.66-1.46,1.65-1.15-.33.45-2.87,9.69-13.58,16-18.51,15.79-12.41,46.24-24,73-27.72l7.2-1-5,6.92c-3.94,5.42-5.26,8-6.13,11.92-1.34,6.1-.29,14.73,2.3,18.84,2.82,4.49,9.55,9,13.82,9.18,4.44.24,10-2.38,11.4-5.41.76-1.59,1.25-1.95,1.69-1.24,1.07,1.7.42,6.52-1.34,10s-8,9.53-11.32,10.89-9.55.57-14.62-1.84c-7.73-3.67-9.64-4-12.93-2.49-3.85,1.8-6.57,6.32-5.45,9,.76,1.84.8,1.81,1-.65.26-3.28.56-3.6,3.65-3.9,2.19-.21,3.49.53,9.37,5.36,8.62,7.08,12.89,8.46,19,6.17,6.75-2.51,10.3-5.45,13.52-11.2,5.07-9.07,6.44-19,3.52-25.64-2.42-5.56-5.72-8.43-9.76-8.53-3.66-.08-5.05,1.1-2,1.71s4.47,4,3.26,8c-.86,2.83-1.4,3.5-3.89,4.81-8.24,4.34-16.49-1.59-18.35-13.21-1.19-7.42.32-13.12,5-18.68,6.47-7.76,15.75-10.84,25.36-8.42,3.82,1,9.94,5.89,12.37,10,6.77,11.36,5.22,30.89-3.81,48-3.34,6.34-19.91,31.9-23.44,36.18a14.56,14.56,0,0,1-5.74,4.11c-4.17,1.45-5.73,3.34-4.87,5.91a4.2,4.2,0,0,1-.63,3.6c-.77.94-.87,1.93-.25,2.44s1.58.23,2.35-.71a4.22,4.22,0,0,1,3.42-1.3c2.57.34,4.24-1.52,5.15-5.72.55-2.57,1.77-4.31,6.62-9.44,7.75-8.22,21.61-20.47,28.74-25.43C694.54,748,712,743,723,746c9,2.44,15.93,11.8,16.12,21.88.11,6.4-1.4,10-6.71,15.77-3.73,4.09-5.3,5.15-10.19,6.88-7.81,2.75-14.75,1.77-19.36-2.75-2.68-2.62-3.25-3.87-3.44-7.57-.18-3.5.26-5,2.11-7.27,3.08-3.74,8-4.41,10.66-1.47,2.22,2.45,3,1.74,1.93-1.72-1.28-4.14-7-7.51-13.56-8-5.8-.4-14.27,2.07-19.29,5.63-4.42,3.13-9.86,11.16-11.15,16.48-1.78,7.32-.52,10.17,7.92,17.82,6.34,5.75,7.24,6.88,7.48,9.41s0,3-1.85,3.59-1.92.79-.94,1.17c1.72.67,5.17-1.68,6.45-4.38,1.92-4,.82-8.75-3.16-13.59-2-2.42-3.89-5.72-4.24-7.35-1.9-8.7,6.21-21.22,15-23.13,4-.87,4.64-.06,1.87,2.38-3,2.59-3.93,7-2.71,12.22.74,3.14,1.83,4.84,5,7.8,5.13,4.78,9.35,6.11,17,5.37,8.26-.79,13-3.41,18.89-10.41,2.64-3.14,5-5.53,5.31-5.3.87.7-.05,21-1.58,35.07-3.25,29.82-10.64,49.61-23.4,62.67-5.75,5.87-8,6.6-5,1.61,3.93-6.55,4.89-20.16,2-28.11-1.26-3.45-2.56-5.16-6.26-8.3-5-4.25-9-5.64-14.91-5.27l-3.29.2.42-2.41c.26-1.55,2.3-4.68,5.63-8.68,6.07-7.3,11.15-10.32,18.78-11.15,6.05-.66,9.27.94,10.32,5.14l.79,3.15,1.65-2c3.7-4.49-1-11.31-8.06-11.68l-3.58-.19,2.05-1.86c2.66-2.41,1.1-3-4.1-1.51-6,1.71-10.79,5-17.14,11.88-4.83,5.24-6.33,7.46-8.65,12.82a48.83,48.83,0,0,1-4.42,8.39c-.88,1.05-3.16,3.66-5.06,5.8-5.72,6.47-7,13.88-3.63,20.9,5,10.32,17.43,12.3,24.39,3.87,3.26-4,3.8-7.76,1.79-12.49-1.5-3.5-6.25-6.71-9.7-6.55-2.31.11-2.41,0-2.78-3.87s-.34-4,2.36-4.83c5.7-1.76,16.08,3.47,18.56,9.36a30.79,30.79,0,0,1,1.44,7.35c1,12.79-6.46,22.64-18.62,24.59-9.79,1.57-16-1.45-21.64-10.55-4.08-6.57-5.21-12.29-3.67-18.54,2.18-8.8,4-11,12.2-14.53,2-.86-2.85-2.74-6.23-2.42-3,.29-3.87,0-3.74-1a5.08,5.08,0,0,1,.58-1.91c.22-.28-.31-2.78-1.18-5.56-2.21-7.11-.49-13.12,4.41-15.37,1.92-.89,1.92-.9-.21-.46-4.85,1-8.11,6.59-10.65,18.2-4.35,19.87-.12,37.89,11.39,48.56,4.66,4.32,5.8,5,10.61,6.13a32.2,32.2,0,0,0,18.58-1.77l3.32-1.37-2,2.47c-4.29,5.29-18.06,9.93-26.5,8.92-4.94-.59-5.88-1.05-12.2-6-5.77-4.49-7.3-6.13-9.8-10.52Zm22.87-12.06c-1.68-2-2.2-7.67-1.07-11.47.9-3,5.18-9,6-8.32,1.51,1.24,2.21,6.36,1.33,9.74s-.76,4.22,1.33,6c2.85,2.35,5.8,1.83,6.15-1.09a3.72,3.72,0,0,0-1.31-3c-1.68-1.28-1.06-2.66,1.31-2.89,1.64-.15,4.84,2.13,6.1,4.36,1,1.84-.06,6.54-2.12,9s-6.53,3.58-10.51,2.72c-2.78-.6-4.6-1.87-7.18-5ZM555.2,757.73c-.77-5.64,1.29-9.46,6-11,3.73-1.24,7.18,0,8.72,3.17,1.29,2.65-.09,4.86-1.67,2.67-.78-1.08-1.72-1.18-3.41-.36-2,1-2.31,1.52-2.22,3.58a5.86,5.86,0,0,0,1.7,3.75c1.79,1.48,7,.71,8.59-1.28a1.52,1.52,0,0,1,2-.51,3.74,3.74,0,0,0,2.69.46c2.89-.55,3.09.54.64,3.5-5.25,6.37-12.2,7.61-18.42,3.29-3.75-2.6-4.07-3.11-4.63-7.25Zm108.86,5.17a15.18,15.18,0,0,0,2.87-5.56c.62-3.61,1.67-4.65,5.72-5.67l3.53-.88-.53,3.88c-.48,3.5-.8,4-3.24,5.3a29.17,29.17,0,0,0-5.76,4.47C662.6,768.5,660.53,767.26,664.06,762.9Zm10.85-20.1c4.48-8.29,6.51-19.82,5.47-31-1.11-11.79-4.07-19-9-21.9-2.62-1.54-2.93-2-2-3,1.64-1.91,5.21-3,8.65-2.62,6.24.67,8.26,4.21,9.12,16,1.25,17.18-3,35.55-10.24,44.34-4,4.8-5,3.86-2-1.77Zm6.5,6.24c7-8.45,23.5-16,39.22-18,15.49-1.94,22.06,1.27,21.85,10.7a8.9,8.9,0,0,1-1.31,4.56c-1.13,1.36-1.61,1.2-5.24-1.84-5.58-4.66-11.66-5.9-23.44-4.79-11.39,1.07-21.78,4.83-28.44,10.27-2.49,2-4.79,3.48-5.1,3.23S679.74,751.06,681.41,749Zm6.5-13.58c5.05-6.12,9.63-14.16,19.82-34.83,9.83-19.94,17.94-28.37,33-34.37a58.52,58.52,0,0,0,9.43-4.75l3.34-2.31-1.45,3.5a112.59,112.59,0,0,0-3.35,10.87c-4.1,15.79-9.91,24.1-23.9,34.17-12.2,8.78-23.9,18-31.64,25C685.79,739.36,683.87,740.36,687.91,735.46ZM691.28,715c.26-2.48.5-8.22.53-12.77.06-10.11,1.25-15.63,4.42-20.55,4.2-6.53,9.8-8.1,13.24-3.71s1,10.79-9.74,27.49c-4.43,6.88-8.12,13-8.19,13.52s-.28.9-.44.76A19.61,19.61,0,0,1,691.28,715Zm15.08,14.4c1.12-1,5-4.7,8.57-8.19,11.6-11.25,19.57-16.12,25.68-15.69,4.09.29,5.23,1.24,5.37,4.46.09,2-.74,3.6-3.73,7.19-4.9,5.87-7.73,7.15-21.4,9.73a118.69,118.69,0,0,0-13.65,3.19l-2.86,1.16Zm-17.94-43.67c-.92-2.91-2.25-4.07-6.19-5.39-1.4-.47-1.12-.73,2.2-2a52.83,52.83,0,0,1,8.47-2.21l4.65-.76-2.62,3.17a28.18,28.18,0,0,0-4,6.89,21.52,21.52,0,0,1-1.46,3.55c0-.09-.54-1.56-1.07-3.26ZM738.15,725c1.53-1.26,4.26-3.68,6.06-5.37l3.29-3.08-.45,4.24c-.25,2.33-.77,5.7-1.15,7.48l-.7,3.24-2.31-1.91a10.64,10.64,0,0,0-4.91-2.11l-2.6-.2Zm-22.59-48.5a7.59,7.59,0,0,0-1.84-3.82c-.72-.6-1.2-1.22-1.07-1.39.44-.53,12.71-4.09,13.66-4,.51.07-.31,1.16-1.85,2.45a35.53,35.53,0,0,0-5.33,6.14c-1.41,2.09-2.68,3.69-2.81,3.56A13.68,13.68,0,0,1,715.56,676.53ZM745,693.74a65.75,65.75,0,0,1,4.81-5.31c.29.22-1.06,13.07-1.41,13.5-.19.24-.51,0-.71-.61s-1.93-1.29-3.86-1.59l-3.5-.56Z" transform="translate(-68.75 -366.61)"/><path class="cls-6" d="M899.27,884.93l-143.8,357.42L650,1276.1c-7.38,2.35-12.79-7.4-6.94-12.5l53.59-46.9L840.41,859.27l-8.95-59.07a7.05,7.05,0,0,1,13.06-4.73Z" transform="translate(-68.75 -366.61)"/><path class="cls-6" d="M1156.91,1107.32l39.8,97.21c4.35,10.61-.48,22.61-10.79,26.83L1091.45,1270c-10.31,4.22-22.17-1-26.51-11.56l-39.8-97.21c-4.34-10.6.49-22.61,10.8-26.83l94.46-38.68C1140.71,1091.54,1152.57,1096.72,1156.91,1107.32Z" transform="translate(-68.75 -366.61)"/><path class="cls-7" d="M1025.14,1161.27c-4.34-10.6.49-22.61,10.8-26.83l38.31-15.69L845.34,1019l-36,89.36,236.23,103Z" transform="translate(-68.75 -366.61)"/><path class="cls-7" d="M719.77,1000a16.44,16.44,0,0,1,.07,12.41,15.48,15.48,0,0,1-20.7,8.47L68.75,746.07l37.06,90.53,632.74,275.83,59.92-148.92L163.55,682.37,80.72,716.28,711.12,991.1A16.47,16.47,0,0,1,719.77,1000Z" transform="translate(-68.75 -366.61)"/></svg>